<svg width="17" height="17" viewBox="0 0 17 17" fill="none" xmlns="http://www.w3.org/2000/svg">
<g clip-path="url(#clip0_216_159)">
<path d="M12.3351 0.391357H4.94738C2.54298 0.391357 0.586914 2.34742 0.586914 4.75183V12.1397C0.586914 14.544 2.54298 16.5 4.94738 16.5H12.3352C14.7395 16.5 16.6956 14.544 16.6956 12.1397V4.75183C16.6956 2.34742 14.7395 0.391357 12.3351 0.391357V0.391357ZM15.7512 12.1397C15.7512 14.0232 14.2188 15.5557 12.3351 15.5557H4.94738C3.06371 15.5557 1.53127 14.0232 1.53127 12.1397V4.75183C1.53127 2.86815 3.06371 1.33572 4.94738 1.33572H12.3352C14.2188 1.33572 15.7512 2.86815 15.7512 4.75183V12.1397Z" fill="black"/>
<path d="M8.64116 4.04102C6.21243 4.04102 4.23657 6.01687 4.23657 8.44561C4.23657 10.8743 6.21243 12.8502 8.64116 12.8502C11.0699 12.8502 13.0458 10.8743 13.0458 8.44561C13.0458 6.01687 11.0699 4.04102 8.64116 4.04102ZM8.64116 11.9058C6.73327 11.9058 5.18093 10.3536 5.18093 8.44561C5.18093 6.53772 6.73327 4.98537 8.64116 4.98537C10.5492 4.98537 12.1014 6.53772 12.1014 8.44561C12.1014 10.3536 10.5492 11.9058 8.64116 11.9058Z" fill="black"/>
<path d="M13.1511 2.47681C12.4334 2.47681 11.8496 3.0607 11.8496 3.77831C11.8496 4.49604 12.4334 5.07994 13.1511 5.07994C13.8688 5.07994 14.4527 4.49604 14.4527 3.77831C14.4527 3.06058 13.8688 2.47681 13.1511 2.47681ZM13.1511 4.13546C12.9542 4.13546 12.794 3.9752 12.794 3.77831C12.794 3.5813 12.9542 3.42117 13.1511 3.42117C13.3481 3.42117 13.5084 3.5813 13.5084 3.77831C13.5084 3.9752 13.3481 4.13546 13.1511 4.13546Z" fill="black"/>
</g>
<defs>
<clipPath id="clip0_216_159">
<rect width="16.1087" height="16.1087" fill="white" transform="translate(0.586914 0.391357)"/>
</clipPath>
</defs>
</svg>
