<svg width="15" height="15" viewBox="0 0 15 15" fill="none" xmlns="http://www.w3.org/2000/svg">
<g clip-path="url(#clip0_216_173)">
<path d="M14.2575 14.2608V14.2602H14.2609V9.26125C14.2609 6.81572 13.7344 4.93188 10.8754 4.93188C9.50104 4.93188 8.57871 5.6861 8.20217 6.40113H8.16241V5.16019H5.45166V14.2602H8.2743V9.75422C8.2743 8.5678 8.4992 7.42058 9.96845 7.42058C11.4161 7.42058 11.4377 8.77453 11.4377 9.83032V14.2608H14.2575Z" fill="black"/>
<path d="M0.855225 5.16089H3.68127V14.2609H0.855225V5.16089Z" fill="black"/>
<path d="M2.26716 0.630371C1.36358 0.630371 0.630371 1.36357 0.630371 2.26716C0.630371 3.17074 1.36358 3.91928 2.26716 3.91928C3.17074 3.91928 3.90395 3.17074 3.90395 2.26716C3.90338 1.36357 3.17018 0.630371 2.26716 0.630371V0.630371Z" fill="black"/>
</g>
<defs>
<clipPath id="clip0_216_173">
<rect width="13.6304" height="13.6304" fill="white" transform="translate(0.630371 0.630371)"/>
</clipPath>
</defs>
</svg>
