<svg width="17" height="17" viewBox="0 0 17 17" fill="none" xmlns="http://www.w3.org/2000/svg">
<g clip-path="url(#clip0_216_166)">
<path d="M16.5001 3.69008C15.901 3.95285 15.2627 4.12703 14.5972 4.2116C15.2818 3.80284 15.8044 3.16051 16.05 2.38628C15.4117 2.76685 14.707 3.03566 13.9559 3.18568C13.3498 2.54032 12.486 2.14062 11.5436 2.14062C9.71527 2.14062 8.24334 3.62464 8.24334 5.44391C8.24334 5.70568 8.26549 5.95738 8.31986 6.197C5.57433 6.06309 3.14494 4.74721 1.51293 2.74269C1.228 3.23702 1.06088 3.80284 1.06088 4.41195C1.06088 5.55567 1.64985 6.56951 2.52777 7.15647C1.99719 7.1464 1.47668 6.99236 1.03571 6.74973C1.03571 6.75979 1.03571 6.77288 1.03571 6.78597C1.03571 8.3908 2.18043 9.72379 3.68156 10.0309C3.41274 10.1044 3.11977 10.1396 2.81572 10.1396C2.60429 10.1396 2.39085 10.1275 2.1905 10.0832C2.61838 11.391 3.83258 12.3525 5.27632 12.3837C4.15274 13.2627 2.72611 13.7922 1.18169 13.7922C0.910863 13.7922 0.65111 13.7802 0.391357 13.7469C1.85423 14.6903 3.58793 15.2289 5.45754 15.2289C11.5345 15.2289 14.857 10.195 14.857 5.83153C14.857 5.68554 14.8519 5.54459 14.8449 5.40465C15.5003 4.93951 16.051 4.35859 16.5001 3.69008Z" fill="black"/>
</g>
<defs>
<clipPath id="clip0_216_166">
<rect width="16.1087" height="16.1087" fill="white" transform="translate(0.391357 0.630371)"/>
</clipPath>
</defs>
</svg>
